<svg width="1200" height="760" viewBox="0 0 1200 760" fill="none" xmlns="http://www.w3.org/2000/svg">
  <defs>
    <linearGradient id="laneA" x1="0" y1="0" x2="1" y2="1">
      <stop stop-color="#0F766E"/>
      <stop offset="1" stop-color="#14B8A6"/>
    </linearGradient>
    <linearGradient id="laneB" x1="0" y1="0" x2="1" y2="1">
      <stop stop-color="#1D4ED8"/>
      <stop offset="1" stop-color="#60A5FA"/>
    </linearGradient>
  </defs>

  <rect width="1200" height="760" rx="28" fill="#F8FAFC"/>
  <text x="60" y="82" fill="#0F172A" font-family="Segoe UI, Arial, sans-serif" font-size="40" font-weight="700">Two workflows, one local research system</text>
  <text x="60" y="122" fill="#475569" font-family="Segoe UI, Arial, sans-serif" font-size="22">
    Both modes share the same API shell, local persistence, and export strategy.
  </text>

  <rect x="60" y="176" width="1080" height="228" rx="28" fill="url(#laneA)"/>
  <text x="96" y="226" fill="white" font-family="Segoe UI, Arial, sans-serif" font-size="28" font-weight="700">Workflow A · General DeepResearchAgent</text>

  <rect x="96" y="266" width="172" height="86" rx="18" fill="white" fill-opacity="0.15"/>
  <text x="124" y="303" fill="white" font-family="Segoe UI, Arial, sans-serif" font-size="20" font-weight="700">Topic Input</text>
  <text x="124" y="329" fill="#E6FFFB" font-family="Segoe UI, Arial, sans-serif" font-size="15">open problem or trend</text>

  <rect x="304" y="266" width="172" height="86" rx="18" fill="white" fill-opacity="0.15"/>
  <text x="336" y="303" fill="white" font-family="Segoe UI, Arial, sans-serif" font-size="20" font-weight="700">Task Planning</text>
  <text x="332" y="329" fill="#E6FFFB" font-family="Segoe UI, Arial, sans-serif" font-size="15">TODO breakdown</text>

  <rect x="512" y="266" width="172" height="86" rx="18" fill="white" fill-opacity="0.15"/>
  <text x="548" y="303" fill="white" font-family="Segoe UI, Arial, sans-serif" font-size="20" font-weight="700">Web Search</text>
  <text x="542" y="329" fill="#E6FFFB" font-family="Segoe UI, Arial, sans-serif" font-size="15">search plus fetch</text>

  <rect x="720" y="266" width="172" height="86" rx="18" fill="white" fill-opacity="0.15"/>
  <text x="742" y="303" fill="white" font-family="Segoe UI, Arial, sans-serif" font-size="20" font-weight="700">Task Summary</text>
  <text x="748" y="329" fill="#E6FFFB" font-family="Segoe UI, Arial, sans-serif" font-size="15">notes and SSE</text>

  <rect x="928" y="266" width="172" height="86" rx="18" fill="white" fill-opacity="0.15"/>
  <text x="955" y="303" fill="white" font-family="Segoe UI, Arial, sans-serif" font-size="20" font-weight="700">Final Report</text>
  <text x="956" y="329" fill="#E6FFFB" font-family="Segoe UI, Arial, sans-serif" font-size="15">Markdown output</text>

  <path d="M268 309H304" stroke="white" stroke-width="4" stroke-linecap="round"/>
  <path d="M476 309H512" stroke="white" stroke-width="4" stroke-linecap="round"/>
  <path d="M684 309H720" stroke="white" stroke-width="4" stroke-linecap="round"/>
  <path d="M892 309H928" stroke="white" stroke-width="4" stroke-linecap="round"/>

  <rect x="60" y="446" width="1080" height="250" rx="28" fill="url(#laneB)"/>
  <text x="96" y="496" fill="white" font-family="Segoe UI, Arial, sans-serif" font-size="28" font-weight="700">Workflow B · Scholarly Retrieval Workbench</text>

  <rect x="96" y="536" width="136" height="96" rx="18" fill="white" fill-opacity="0.15"/>
  <text x="128" y="572" fill="white" font-family="Segoe UI, Arial, sans-serif" font-size="19" font-weight="700">Session</text>
  <text x="114" y="598" fill="#EFF6FF" font-family="Segoe UI, Arial, sans-serif" font-size="14">create and persist</text>

  <rect x="254" y="536" width="146" height="96" rx="18" fill="white" fill-opacity="0.15"/>
  <text x="281" y="572" fill="white" font-family="Segoe UI, Arial, sans-serif" font-size="19" font-weight="700">Recall</text>
  <text x="272" y="598" fill="#EFF6FF" font-family="Segoe UI, Arial, sans-serif" font-size="14">OpenAlex arXiv S2</text>

  <rect x="422" y="536" width="166" height="96" rx="18" fill="white" fill-opacity="0.15"/>
  <text x="448" y="572" fill="white" font-family="Segoe UI, Arial, sans-serif" font-size="19" font-weight="700">Screening</text>
  <text x="446" y="598" fill="#EFF6FF" font-family="Segoe UI, Arial, sans-serif" font-size="14">dedupe and rerank</text>

  <rect x="610" y="536" width="154" height="96" rx="18" fill="white" fill-opacity="0.15"/>
  <text x="635" y="572" fill="white" font-family="Segoe UI, Arial, sans-serif" font-size="19" font-weight="700">Workbench</text>
  <text x="634" y="598" fill="#EFF6FF" font-family="Segoe UI, Arial, sans-serif" font-size="14">human selection</text>

  <rect x="786" y="536" width="150" height="96" rx="18" fill="white" fill-opacity="0.15"/>
  <text x="815" y="572" fill="white" font-family="Segoe UI, Arial, sans-serif" font-size="19" font-weight="700">Fulltext</text>
  <text x="804" y="598" fill="#EFF6FF" font-family="Segoe UI, Arial, sans-serif" font-size="14">PDF and parsing</text>

  <rect x="958" y="536" width="142" height="96" rx="18" fill="white" fill-opacity="0.15"/>
  <text x="982" y="572" fill="white" font-family="Segoe UI, Arial, sans-serif" font-size="19" font-weight="700">Memo</text>
  <text x="974" y="598" fill="#EFF6FF" font-family="Segoe UI, Arial, sans-serif" font-size="14">tiered evidence</text>

  <path d="M232 584H254" stroke="white" stroke-width="4" stroke-linecap="round"/>
  <path d="M400 584H422" stroke="white" stroke-width="4" stroke-linecap="round"/>
  <path d="M588 584H610" stroke="white" stroke-width="4" stroke-linecap="round"/>
  <path d="M764 584H786" stroke="white" stroke-width="4" stroke-linecap="round"/>
  <path d="M936 584H958" stroke="white" stroke-width="4" stroke-linecap="round"/>
</svg>
